<svg width="250" height="73" viewBox="0 0 250 73" fill="none" xmlns="http://www.w3.org/2000/svg">
<g clip-path="url(#clip0_28_434)">
<path d="M198.641 45.4783L200.04 38.8831H173.761L166.767 71.1805H193.545L194.944 64.5853H176.859L178.257 58.2809H194.145L195.544 51.6857H179.656L181.055 45.4783H198.641Z" fill="white"/>
<path d="M121.203 38.8831L114.209 71.1805H122.902L129.896 38.8831H121.203Z" fill="white"/>
<path d="M103.118 38.8831H94.4245L87.4301 71.1805H110.212L111.811 64.1003H97.6219L103.118 38.8831Z" fill="white"/>
<path d="M159.273 38.8831L154.976 58.4749L144.085 38.8831H136.391L129.396 71.1805H137.49L141.787 51.6857L152.578 71.1805H160.272L167.266 38.8831H159.273Z" fill="white"/>
<path d="M166.367 34.1306H175.06L182.154 1.73608H173.361L166.367 34.1306Z" fill="#FFA500"/>
<path d="M211.331 1.73608L197.842 25.3045L194.644 1.73608H185.252L191.147 34.1306H200.14L220.224 1.73608H211.331Z" fill="#FFA500"/>
<path d="M248.601 8.42836L250 1.73608H223.421L216.327 34.1306H243.106L244.604 27.4383H226.519L227.918 21.134H243.805L245.204 14.5387H229.317L230.616 8.42836H248.601Z" fill="#FFA500"/>
<path d="M165.368 13.0838C166.167 9.49524 165.568 6.68255 163.569 4.74276C161.571 2.80297 158.373 1.73608 153.977 1.73608H138.989L131.994 34.1306H140.687L142.686 25.1105H148.981C149.081 25.1105 149.081 25.1105 149.181 25.1105L152.078 34.1306H161.97L157.274 23.5587C158.273 23.1708 159.173 22.5888 159.972 22.0069C162.67 19.8731 164.568 16.8664 165.368 13.0838ZM157.074 13.2778C156.675 14.9266 155.975 16.2845 154.776 17.1574C153.577 18.0303 152.178 18.4183 150.38 18.4183H144.085L146.283 8.33137H152.578C154.376 8.33137 155.675 8.71932 156.475 9.59223C157.174 10.4651 157.374 11.726 157.074 13.2778Z" fill="#FFA500"/>
<path d="M131.295 11.338C130.895 9.39825 129.996 7.65244 128.797 6.1976C127.498 4.74276 125.899 3.67587 123.901 2.89996C121.902 2.12404 119.504 1.73608 116.906 1.73608H102.518L95.5236 34.1306H109.512C112.21 34.1306 114.708 33.7426 117.106 32.9667C119.504 32.1908 121.603 31.1239 123.501 29.669C125.4 28.2142 126.998 26.4684 128.297 24.5286C129.596 22.5888 130.496 20.3581 130.995 17.9333C131.695 15.5086 131.695 13.2778 131.295 11.338ZM122.202 18.0303C121.902 19.3882 121.403 20.649 120.803 21.8129C120.104 22.9768 119.305 23.9467 118.405 24.8196C117.406 25.6925 116.407 26.2744 115.208 26.7594C114.109 27.2443 112.81 27.4383 111.611 27.4383H105.715L109.712 8.52535H115.208C116.507 8.52535 117.706 8.71932 118.705 9.20427C119.704 9.68922 120.504 10.2712 121.103 11.1441C121.703 12.017 122.102 12.9869 122.302 14.1507C122.602 15.3146 122.502 16.5755 122.202 18.0303Z" fill="#FFA500"/>
<path d="M199.54 71.1806H210.132L211.531 64.4883H200.939L199.54 71.1806ZM215.927 64.5853L214.528 71.2775H235.112L236.511 64.5853H215.927Z" fill="#4CAF50"/>
<path fill-rule="evenodd" clip-rule="evenodd" d="M46.3633 1.73608C66.1473 1.73628 82.1348 17.2549 82.1348 36.4587C82.1346 48.0412 76.3173 58.2808 67.3604 64.5857H82.1348L80.7354 71.1804H0L1.39844 64.5857H14.7734C5.81689 58.2808 0.000145611 48.041 0 36.4587C0 17.2548 15.9873 1.73608 35.7715 1.73608H46.3633ZM35.7715 7.16772C19.1058 7.16772 5.5957 20.2819 5.5957 36.4587C5.59595 52.6354 19.106 65.7488 35.7715 65.7488C52.4369 65.7487 65.947 52.6354 65.9473 36.4587C65.9473 20.2819 52.4371 7.16778 35.7715 7.16772Z" fill="white"/>
<path d="M35.7715 16.866C38.941 16.866 41.9393 17.5768 44.6084 18.8406C34.5508 19.4203 26.5791 27.5203 26.5791 37.4285C26.5792 46.0586 32.6276 53.3155 40.834 55.4275C39.2161 55.8331 37.5199 56.0505 35.7715 56.0505C24.6244 56.0505 15.5881 47.2788 15.5879 36.4587C15.5879 25.6384 24.6243 16.866 35.7715 16.866Z" fill="#4CAF50"/>
</g>
<defs>
<clipPath id="clip0_28_434">
<rect width="250" height="69.4444" fill="white" transform="translate(0 1.73608)"/>
</clipPath>
</defs>
</svg>
